<?xml version="1.0" standalone="no"?>
<!DOCTYPE svg PUBLIC "-//W3C//DTD SVG 20010904//EN"
 "http://www.w3.org/TR/2001/REC-SVG-20010904/DTD/svg10.dtd">
<svg version="1.0" xmlns="http://www.w3.org/2000/svg"
 width="800.000000pt" height="800.000000pt" viewBox="0 0 800.000000 800.000000"
 preserveAspectRatio="xMidYMid meet">
<metadata>
Created by potrace 1.11, written by Peter Selinger 2001-2013
</metadata>
<g transform="translate(0.000000,800.000000) scale(0.100000,-0.100000)"
fill="#000000" stroke="none">
<path d="M4635 7140 l-90 -91 -38 78 -37 78 6 -113 6 -114 -184 -187 c-100
-102 -211 -215 -245 -251 l-61 -65 -40 -155 c-82 -316 -81 -305 -43 -575 56
-394 91 -751 91 -931 0 -193 -33 -383 -81 -461 -44 -70 -348 -246 -529 -304
-170 -55 -385 -89 -560 -89 -36 0 -80 -4 -97 -9 -31 -9 -32 -8 -49 37 -35 94
-66 116 -124 92 -43 -18 -72 -70 -77 -144 -7 -76 4 -99 57 -126 44 -23 43 -20
30 -75 -5 -22 -17 -152 -25 -290 -26 -414 -44 -542 -96 -675 -54 -140 -155
-230 -258 -230 -22 0 -33 -11 -61 -57 -73 -120 -115 -235 -147 -403 -15 -81
-18 -150 -18 -465 l0 -370 -50 -8 c-359 -61 -515 -117 -515 -182 0 -47 112
-96 316 -139 1008 -212 3704 -188 4437 40 367 114 75 245 -722 324 -189 18
-205 21 -220 42 -33 48 -103 116 -131 128 -24 10 -33 9 -52 -4 -12 -9 -28 -16
-34 -16 -26 0 -47 409 -34 639 21 359 65 515 225 786 52 89 60 97 110 119 102
46 197 108 272 179 194 185 229 402 117 737 -38 115 -134 319 -209 445 -48 80
-525 1016 -525 1029 0 4 75 4 168 0 398 -19 571 0 622 69 50 69 120 238 120
291 0 28 13 24 -275 76 -99 18 -303 56 -454 85 l-274 51 76 40 c42 21 77 42
77 45 0 4 -38 26 -83 49 l-84 42 -7 152 -6 153 -105 232 c-58 128 -105 238
-105 245 0 6 24 85 54 174 30 89 54 162 53 162 -2 0 -43 -41 -92 -90z m-98
-245 c0 -8 -4 -12 -9 -9 -5 3 -6 10 -3 15 9 13 12 11 12 -6z m30 -277 c-3 -7
-5 -2 -5 12 0 14 2 19 5 13 2 -7 2 -19 0 -25z m-38 -193 c6 -82 14 -167 16
-188 l5 -38 -77 7 c-43 4 -79 8 -80 9 -2 1 25 83 58 184 34 100 62 181 64 179
2 -2 8 -70 14 -153z m58 -17 c-3 -8 -6 -5 -6 6 -1 11 2 17 5 13 3 -3 4 -12 1
-19z m10 -160 c-3 -7 -5 -2 -5 12 0 14 2 19 5 13 2 -7 2 -19 0 -25z m-110
-214 c-3 -3 -12 -4 -19 -1 -8 3 -5 6 6 6 11 1 17 -2 13 -5z m-39 -30 c54 -6
65 -10 73 -31 13 -34 39 -41 60 -15 20 25 39 29 39 8 0 -21 -55 -39 -119 -38
-85 1 -171 42 -171 80 0 10 7 13 28 9 15 -3 55 -9 90 -13z m152 -87 c0 -2 -10
-12 -22 -23 l-23 -19 19 23 c18 21 26 27 26 19z m-440 -383 c0 -2 -7 -4 -15
-4 -8 0 -15 4 -15 10 0 5 7 7 15 4 8 -4 15 -8 15 -10z m697 -140 c-3 -3 -12
-4 -19 -1 -8 3 -5 6 6 6 11 1 17 -2 13 -5z m-852 -2518 c15 -94 44 -276 66
-405 l38 -235 -35 -38 c-20 -22 -34 -49 -34 -63 0 -14 15 -159 34 -323 19
-163 37 -326 41 -362 4 -36 9 -73 11 -82 5 -17 -8 -18 -166 -18 -154 0 -171 2
-176 18 -16 48 -76 160 -96 179 l-23 22 -68 -24 -68 -25 -39 82 c-110 235
-135 417 -76 558 12 30 63 120 112 200 118 190 200 339 269 488 30 67 55 124
55 126 0 3 9 30 20 59 l20 54 44 -20 43 -19 28 -172z m-724 -58 c21 -171 -14
-287 -105 -345 -25 -15 -47 -34 -51 -41 -3 -8 -10 -54 -15 -104 -23 -200 23
-393 185 -783 21 -49 43 -115 49 -146 l12 -56 -200 -7 c-223 -8 -449 -20 -663
-37 l-142 -11 -24 28 c-24 27 -26 28 -67 15 -23 -7 -44 -11 -46 -8 -11 10 -23
166 -24 289 0 171 19 275 71 385 46 96 99 154 219 238 130 92 303 228 426 336
112 99 284 273 325 329 13 16 26 27 31 22 4 -4 13 -51 19 -104z m1462 -140 c6
-45 4 -53 -14 -66 -38 -26 -57 -85 -48 -145 5 -28 22 -176 39 -327 54 -483 60
-533 75 -648 8 -62 15 -120 15 -128 0 -8 4 -12 10 -9 6 4 7 -1 3 -11 -5 -15
-29 -15 -257 -9 -138 4 -252 8 -253 9 -5 4 -14 129 -14 198 1 110 19 328 37
433 29 176 110 365 240 560 64 96 141 195 153 195 4 0 11 -23 14 -52z"/>
</g>
</svg>
